<svg width="40" height="40" viewBox="0 0 64 64" fill="none" xmlns="http://www.w3.org/2000/svg">
<path d="M32 2C20.973 2 12 9.889 12 19.586C12 24.716 15.368 29.998 18.621 35.102C21.424 39.495 24.101 43.688 24.937 48H39.062C39.9 43.687 42.574 39.494 45.376 35.102C48.631 29.998 52 24.716 52 19.586C52 9.889 43.027 2 32 2ZM32 29.674C33.932 31.759 35.752 32.379 36.584 32.563C36.459 33.118 36.346 33.66 36.215 34.194C35.969 35.286 35.729 36.35 35.496 37.372C34.8468 40.2444 34.2151 43.1208 33.601 46.001H30.398C29.7825 43.1211 29.1508 40.2448 28.503 37.372L27.782 34.194C27.651 33.66 27.538 33.118 27.415 32.563C28.248 32.379 30.068 31.759 32 29.674M31.461 27.491C31.27 27.078 31.201 26.656 31.397 26.345C31.561 26.098 31.778 25.957 32.001 25.957C32.224 25.957 32.439 26.098 32.605 26.345C32.8 26.656 32.732 27.077 32.541 27.491C32.4 27.783 32.207 28.061 32 28.33C31.7908 28.0704 31.6101 27.7891 31.461 27.491M43.691 34.025C41.108 38.074 38.652 41.923 37.488 46H34.242C34.9617 43.1822 35.666 40.3605 36.355 37.535C36.601 36.514 36.861 35.457 37.126 34.367C37.274 33.787 37.405 33.189 37.55 32.594C38.306 32.543 39.029 32.307 39.593 31.79C40.171 31.221 40.472 30.477 40.337 29.683C40.276 29.303 39.991 28.811 39.441 28.643C39.172 28.5523 38.8818 28.5457 38.609 28.624C38.3818 28.7082 38.1772 28.8437 38.011 29.02C37.478 29.612 37.284 30.203 37.066 30.789C36.964 31.084 36.88 31.379 36.8 31.67C36.8 31.67 35.95 31.735 34.132 30.512C33.122 29.833 32.831 29.342 32.538 29.017C32.854 28.666 33.157 28.281 33.392 27.814C33.517 27.553 33.622 27.27 33.658 26.952C33.694 26.634 33.635 26.274 33.453 25.964C33.2587 25.6203 32.9539 25.3524 32.588 25.204C32.406 25.139 32.203 25.108 32 25.108C31.797 25.108 31.592 25.138 31.412 25.204C31.0458 25.3527 30.7403 25.6204 30.545 25.964C30.363 26.275 30.305 26.634 30.34 26.952C30.3803 27.2523 30.4709 27.5437 30.608 27.814C30.842 28.281 31.145 28.667 31.462 29.017C31.169 29.342 30.876 29.833 29.866 30.512C28.048 31.736 27.198 31.67 27.198 31.67C27.1196 31.3736 27.0315 31.0797 26.934 30.789C26.713 30.203 26.522 29.612 25.989 29.02C25.823 28.8435 25.6183 28.7079 25.391 28.624C25.1182 28.5457 24.828 28.5523 24.559 28.643C24.006 28.811 23.723 29.303 23.663 29.683C23.526 30.477 23.829 31.221 24.407 31.79C24.973 32.307 25.694 32.543 26.45 32.594C26.593 33.19 26.723 33.787 26.874 34.367L27.645 37.535C28.3346 40.3603 29.0389 43.182 29.758 46H26.512C25.35 41.927 22.893 38.078 20.303 34.021C17.204 29.158 14 24.13 14 19.586C14 10.992 22.074 4 32 4C41.925 4 50 10.992 50 19.586C50 24.132 46.793 29.161 43.691 34.025M37.799 31.664C37.858 31.459 37.918 31.251 37.988 31.051C38.177 30.524 38.418 29.951 38.746 29.608C38.824 29.52 38.904 29.485 38.945 29.462C38.945 29.466 39.043 29.45 39.105 29.481C39.216 29.509 39.322 29.624 39.363 29.845C39.443 30.273 39.24 30.824 38.873 31.169C38.615 31.414 38.217 31.586 37.799 31.664ZM26.199 31.664C25.781 31.586 25.383 31.414 25.127 31.168C24.758 30.823 24.557 30.272 24.637 29.844C24.678 29.622 24.783 29.508 24.895 29.48C24.958 29.45 25.055 29.465 25.055 29.461C25.094 29.484 25.176 29.52 25.25 29.607C25.58 29.951 25.82 30.523 26.01 31.05C26.08 31.251 26.141 31.459 26.199 31.664M26.52 49.557H25.52V53.157H26.288V56.358H27.056V59.559H28.342C28.947 60.988 30.347 62 32 62C33.652 62 35.051 60.988 35.658 59.557H36.985V56.336L37.097 56.295L37.752 56.055V53.132L37.817 53.111L38.518 52.891V49.556H26.52V49.557Z" fill="black"/>
</svg>
