<svg width="30" height="30" viewBox="0 0 50 50" fill="none" xmlns="http://www.w3.org/2000/svg">
<g clip-path="url(#clip0_12_2)">
<path d="M15.625 25C15.625 19.7363 19.7363 15.625 25 15.625C30.1758 15.625 34.375 19.7363 34.375 25C34.375 30.1758 30.1758 34.375 25 34.375C19.7363 34.375 15.625 30.1758 15.625 25ZM50 25C50 38.8086 38.8086 50 25 50C11.1914 50 0 38.8086 0 25C0 11.1914 11.1914 0 25 0C38.8086 0 50 11.1914 50 25ZM25 4.6875C13.7793 4.6875 4.6875 13.7793 4.6875 25C4.6875 36.2207 13.7793 45.3125 25 45.3125C36.2207 45.3125 45.3125 36.2207 45.3125 25C45.3125 13.7793 36.2207 4.6875 25 4.6875Z" fill="#FFCD00"/>
</g>
<defs>
<clipPath id="clip0_12_2">
<rect width="50" height="50" fill="white"/>
</clipPath>
</defs>
</svg>
