<svg width="35" height="35" viewBox="0 0 35 35" fill="none" xmlns="http://www.w3.org/2000/svg">
<path d="M12.5384 11.332C10.2279 11.332 8.3913 13.1686 8.3913 15.4792C8.3913 17.7897 10.2279 19.6263 12.5384 19.6263C14.849 19.6263 16.6856 17.7897 16.6856 15.4792C16.6856 13.1686 14.849 11.332 12.5384 11.332ZM12.5384 18.4414C10.8796 18.4414 9.57619 17.138 9.57619 15.4792C9.57619 13.8203 10.8796 12.5169 12.5384 12.5169C14.1973 12.5169 15.5007 13.8203 15.5007 15.4792C15.5007 17.138 14.1973 18.4414 12.5384 18.4414Z" fill="black"/>
<path d="M21.2474 13.5241L19.5885 12.9909L19.2331 12.1022L20.0625 10.5619C20.2402 10.2064 20.181 9.73242 19.8848 9.4362L18.4629 8.01432C18.1667 7.7181 17.6927 7.65885 17.3372 7.83659L15.7969 8.66602L14.9082 8.31055L14.375 6.65169C14.2565 6.29622 13.901 6 13.4863 6H11.472C11.0573 6 10.7018 6.29622 10.6426 6.71094L10.1094 8.36979C9.75391 8.42904 9.45768 8.54753 9.16146 8.72526L7.6211 7.89583C7.26563 7.7181 6.79167 7.77734 6.49544 8.07357L5.07357 9.49544C4.77734 9.79167 4.7181 10.2656 4.89583 10.6211L5.66602 12.1022C5.54753 12.3984 5.42904 12.7539 5.31055 13.0501L3.65169 13.5833C3.29622 13.7018 3 14.0573 3 14.472V16.4863C3 16.901 3.29622 17.2565 3.71094 17.375L5.36979 17.9082L5.72526 18.7969L4.89583 20.3372C4.7181 20.6927 4.77734 21.1667 5.07357 21.4629L6.49544 22.8848C6.79167 23.181 7.26563 23.2402 7.6211 23.0625L9.16146 22.2331L10.0501 22.5885L10.5833 24.3066C10.7018 24.6621 11.0573 24.9583 11.472 24.9583H13.4863C13.901 24.9583 14.2565 24.6621 14.375 24.3066L14.9082 22.5885L15.7969 22.2331L17.3372 23.0625C17.6927 23.2402 18.1667 23.181 18.4629 22.8848L19.8848 21.4629C20.181 21.1667 20.2402 20.6927 20.0625 20.3372L19.2331 18.7969L19.5885 17.9082L21.3066 17.375C21.6621 17.2565 21.9583 16.901 21.9583 16.4863V14.472C21.9583 14.0573 21.6621 13.6426 21.2474 13.5241V13.5241ZM20.7734 16.3086L18.6406 16.9603L18.5814 17.2565L18.0482 18.5007L17.8704 18.7969L18.9369 20.752L17.752 21.9369L15.7969 20.8704L15.5007 21.0482C15.0859 21.2852 14.6712 21.4629 14.2565 21.5814L13.9603 21.6406L13.3086 23.7734H11.6497L10.998 21.6406L10.7018 21.5814L9.45768 21.0482L9.16146 20.8704L7.20638 21.9369L6.02149 20.752L7.08789 18.7969L6.91016 18.5007C6.67318 18.0859 6.49544 17.6712 6.37695 17.2565L6.31771 16.9603L4.1849 16.3086V14.6497L6.19922 14.0573L6.31771 13.7611C6.4362 13.2871 6.61393 12.8724 6.85091 12.4577L7.02865 12.1615L6.02149 10.2064L7.20638 9.02149L9.10222 10.0879L9.39844 9.91016C9.81315 9.67318 10.2279 9.49544 10.7018 9.37695L10.998 9.25846L11.6497 7.1849H13.3086L13.9603 9.25846L14.2565 9.37695C14.6712 9.49544 15.0859 9.67318 15.5007 9.91016L15.7969 10.0879L17.752 9.02149L18.9369 10.2064L17.8704 12.1615L18.0482 12.4577C18.2852 12.8724 18.4629 13.2871 18.5814 13.7018L18.6406 13.998L20.7734 14.6497V16.3086V16.3086Z" fill="black"/>
<path d="M25.6406 20.9479C24.2188 20.9479 23.0886 22.0781 23.0886 23.5C23.0886 24.9219 24.2188 26.0521 25.6406 26.0521C27.0625 26.0521 28.1927 24.9219 28.1927 23.5C28.1927 22.0781 27.0625 20.9479 25.6406 20.9479ZM25.6406 25.3229C24.6198 25.3229 23.8177 24.5208 23.8177 23.5C23.8177 22.4792 24.6198 21.6771 25.6406 21.6771C26.6615 21.6771 27.4636 22.4792 27.4636 23.5C27.4636 24.5208 26.6615 25.3229 25.6406 25.3229Z" fill="black"/>
<path d="M31 22.2969L29.9792 21.9688L29.7605 21.4219L30.2709 20.474C30.3803 20.2552 30.3438 19.9635 30.1615 19.7813L29.2865 18.9063C29.1042 18.724 28.8125 18.6875 28.5938 18.7969L27.6459 19.3073L27.099 19.0885L26.7709 18.0677C26.698 17.849 26.4792 17.6667 26.224 17.6667H24.9844C24.7292 17.6667 24.5105 17.849 24.474 18.1042L24.1459 19.125C23.9271 19.1615 23.7448 19.2344 23.5625 19.3438L22.6146 18.8333C22.3959 18.724 22.1042 18.7604 21.9219 18.9427L21.0469 19.8177C20.8646 20 20.8282 20.2917 20.9375 20.5104L21.4115 21.4219C21.3386 21.6042 21.2657 21.8229 21.1927 22.0052L20.1719 22.3333C19.9532 22.4063 19.7709 22.625 19.7709 22.8802V24.1198C19.7709 24.375 19.9532 24.5938 20.2084 24.6667L21.2292 24.9948L21.448 25.5417L20.9375 26.4896C20.8282 26.7083 20.8646 27 21.0469 27.1823L21.9219 28.0573C22.1042 28.2396 22.3959 28.276 22.6146 28.1667L23.5625 27.6563L24.1094 27.875L24.4375 28.9323C24.5105 29.151 24.7292 29.3333 24.9844 29.3333H26.224C26.4792 29.3333 26.698 29.151 26.7709 28.9323L27.099 27.875L27.6459 27.6563L28.5938 28.1667C28.8125 28.276 29.1042 28.2396 29.2865 28.0573L30.1615 27.1823C30.3438 27 30.3803 26.7083 30.2709 26.4896L29.7605 25.5417L29.9792 24.9948L31.0365 24.6667C31.2553 24.5938 31.4375 24.375 31.4375 24.1198V22.8802C31.4375 22.625 31.2553 22.3698 31 22.2969V22.2969ZM30.7084 24.0104L29.3959 24.4115L29.3594 24.5938L29.0313 25.3594L28.9219 25.5417L29.5782 26.7448L28.849 27.474L27.6459 26.8177L27.4636 26.9271C27.2084 27.0729 26.9532 27.1823 26.698 27.2552L26.5157 27.2917L26.1146 28.6042H25.0938L24.6927 27.2917L24.5105 27.2552L23.7448 26.9271L23.5625 26.8177L22.3594 27.474L21.6302 26.7448L22.2865 25.5417L22.1771 25.3594C22.0313 25.1042 21.9219 24.849 21.849 24.5938L21.8125 24.4115L20.5 24.0104V22.9896L21.7396 22.625L21.8125 22.4427C21.8855 22.151 21.9948 21.8958 22.1407 21.6406L22.25 21.4583L21.6302 20.2552L22.3594 19.526L23.5261 20.1823L23.7084 20.0729C23.9636 19.9271 24.2188 19.8177 24.5105 19.7448L24.6927 19.6719L25.0938 18.3958H26.1146L26.5157 19.6719L26.698 19.7448C26.9532 19.8177 27.2084 19.9271 27.4636 20.0729L27.6459 20.1823L28.849 19.526L29.5782 20.2552L28.9219 21.4583L29.0313 21.6406C29.1771 21.8958 29.2865 22.151 29.3594 22.4063L29.3959 22.5885L30.7084 22.9896V24.0104V24.0104Z" fill="black"/>
</svg>
